<svg width="768" height="768" viewBox="0 0 768 768" fill="none" xmlns="http://www.w3.org/2000/svg">
<rect width="768" height="768" rx="12" fill="#F54A00"/>
<path d="M504.396 429.741V338.828H518.56L524.613 356.985V429.741H504.396ZM567.108 429.741L513.538 361.106L518.56 338.828L572.13 407.464L567.108 429.741ZM567.108 429.741L561.699 411.584V338.828H581.917V429.741H567.108Z" fill="#333333"/>
<path d="M437.673 431.158C430.204 431.158 423.593 429.57 417.842 426.393C412.176 423.217 407.711 418.839 404.449 413.259C401.273 407.593 399.685 401.154 399.685 393.943V338.828H420.031V395.102C420.031 398.707 420.803 401.841 422.349 404.502C423.894 407.163 425.997 409.224 428.658 410.683C431.406 412.057 434.41 412.743 437.673 412.743C441.106 412.743 444.111 412.057 446.687 410.683C449.262 409.224 451.28 407.206 452.739 404.631C454.284 401.969 455.057 398.836 455.057 395.23V338.828H475.403V394.071C475.403 401.283 473.815 407.678 470.638 413.259C467.462 418.839 463.041 423.217 457.375 426.393C451.709 429.57 445.141 431.158 437.673 431.158Z" fill="#333333"/>
<path d="M338.939 431.158C331.471 431.158 325.032 429.956 319.623 427.552C314.301 425.063 309.407 421.328 304.943 416.349L318.078 403.343C320.997 406.691 324.216 409.309 327.736 411.198C331.342 413.001 335.505 413.902 340.227 413.902C344.519 413.902 347.825 413.13 350.143 411.584C352.546 410.039 353.748 407.893 353.748 405.146C353.748 402.656 352.976 400.639 351.43 399.093C349.885 397.548 347.825 396.217 345.249 395.101C342.76 393.985 339.97 392.912 336.879 391.882C333.874 390.852 330.87 389.693 327.865 388.405C324.86 387.032 322.07 385.358 319.495 383.383C317.005 381.323 314.988 378.79 313.442 375.786C311.897 372.695 311.124 368.832 311.124 364.196C311.124 358.616 312.455 353.808 315.116 349.773C317.864 345.739 321.641 342.691 326.448 340.631C331.256 338.484 336.793 337.411 343.06 337.411C349.413 337.411 355.208 338.527 360.444 340.759C365.767 342.991 370.145 346.039 373.579 349.902L360.444 362.908C357.697 360.075 354.907 357.972 352.074 356.598C349.327 355.225 346.194 354.538 342.674 354.538C339.154 354.538 336.364 355.225 334.304 356.598C332.243 357.886 331.213 359.775 331.213 362.264C331.213 364.582 331.986 366.471 333.531 367.93C335.076 369.304 337.094 370.506 339.583 371.536C342.159 372.566 344.949 373.596 347.953 374.627C351.044 375.657 354.092 376.859 357.096 378.232C360.101 379.606 362.848 381.366 365.338 383.512C367.913 385.572 369.974 388.234 371.519 391.496C373.064 394.672 373.837 398.621 373.837 403.343C373.837 412.014 370.746 418.839 364.565 423.818C358.384 428.711 349.842 431.158 338.939 431.158Z" fill="#333333"/>
<path d="M253.248 431.158C245.779 431.158 239.34 429.956 233.932 427.552C228.609 425.063 223.716 421.328 219.252 416.349L232.387 403.343C235.306 406.691 238.525 409.309 242.045 411.198C245.65 413.001 249.814 413.902 254.536 413.902C258.828 413.902 262.133 413.13 264.451 411.584C266.855 410.039 268.057 407.893 268.057 405.146C268.057 402.656 267.284 400.639 265.739 399.093C264.194 397.548 262.133 396.217 259.558 395.101C257.068 393.985 254.278 392.912 251.188 391.882C248.183 390.852 245.178 389.693 242.174 388.405C239.169 387.032 236.379 385.358 233.803 383.383C231.314 381.323 229.296 378.79 227.751 375.786C226.206 372.695 225.433 368.832 225.433 364.196C225.433 358.616 226.764 353.808 229.425 349.773C232.172 345.739 235.949 342.691 240.757 340.631C245.565 338.484 251.102 337.411 257.369 337.411C263.721 337.411 269.516 338.527 274.753 340.759C280.076 342.991 284.454 346.039 287.888 349.902L274.753 362.908C272.006 360.075 269.216 357.972 266.383 356.598C263.636 355.225 260.502 354.538 256.982 354.538C253.463 354.538 250.672 355.225 248.612 356.598C246.552 357.886 245.522 359.775 245.522 362.264C245.522 364.582 246.294 366.471 247.839 367.93C249.385 369.304 251.402 370.506 253.892 371.536C256.467 372.566 259.257 373.596 262.262 374.627C265.353 375.657 268.4 376.859 271.405 378.232C274.41 379.606 277.157 381.366 279.646 383.512C282.222 385.572 284.282 388.234 285.827 391.496C287.373 394.672 288.145 398.621 288.145 403.343C288.145 412.014 285.055 418.839 278.874 423.818C272.693 428.711 264.151 431.158 253.248 431.158Z" fill="#333333"/>
<path d="M177.104 429.741V338.828H197.322V429.741H177.104Z" fill="#333333"/>
</svg>
