<svg width="361" height="361" viewBox="0 0 361 361" fill="none" xmlns="http://www.w3.org/2000/svg">
<rect width="361" height="361" rx="12" fill="#F54A00"/>
<path d="M237.092 202.001V159.267H243.75L246.595 167.801V202.001H237.092ZM266.57 202.001L241.389 169.738L243.75 159.267L268.931 191.529L266.57 202.001ZM266.57 202.001L264.028 193.466V159.267H273.531V202.001H266.57Z" fill="#333333"/>
<path d="M205.728 202.667C202.218 202.667 199.11 201.92 196.407 200.427C193.743 198.934 191.645 196.876 190.112 194.253C188.619 191.59 187.872 188.563 187.872 185.174V159.267H197.436V185.718C197.436 187.413 197.799 188.886 198.525 190.137C199.252 191.388 200.24 192.356 201.491 193.042C202.783 193.688 204.195 194.011 205.728 194.011C207.343 194.011 208.755 193.688 209.965 193.042C211.176 192.356 212.124 191.408 212.81 190.197C213.537 188.947 213.9 187.474 213.9 185.779V159.267H223.464V185.234C223.464 188.624 222.717 191.63 221.224 194.253C219.731 196.876 217.653 198.934 214.989 200.427C212.326 201.92 209.239 202.667 205.728 202.667Z" fill="#333333"/>
<path d="M159.319 202.667C155.808 202.667 152.782 202.102 150.239 200.972C147.737 199.802 145.437 198.046 143.339 195.706L149.513 189.592C150.885 191.166 152.398 192.397 154.053 193.284C155.747 194.132 157.705 194.556 159.924 194.556C161.942 194.556 163.495 194.192 164.585 193.466C165.715 192.74 166.28 191.731 166.28 190.44C166.28 189.269 165.917 188.321 165.19 187.595C164.464 186.868 163.495 186.243 162.285 185.718C161.114 185.194 159.803 184.689 158.35 184.205C156.938 183.721 155.526 183.176 154.113 182.571C152.701 181.925 151.389 181.138 150.179 180.21C149.008 179.242 148.06 178.051 147.334 176.639C146.607 175.186 146.244 173.37 146.244 171.191C146.244 168.568 146.87 166.308 148.121 164.412C149.412 162.515 151.188 161.083 153.447 160.114C155.707 159.105 158.31 158.601 161.256 158.601C164.242 158.601 166.966 159.125 169.427 160.175C171.929 161.224 173.987 162.656 175.601 164.472L169.427 170.586C168.136 169.254 166.824 168.265 165.493 167.62C164.201 166.974 162.729 166.651 161.074 166.651C159.42 166.651 158.108 166.974 157.14 167.62C156.171 168.225 155.687 169.113 155.687 170.283C155.687 171.373 156.05 172.26 156.777 172.946C157.503 173.592 158.451 174.157 159.621 174.641C160.832 175.125 162.143 175.61 163.556 176.094C165.009 176.578 166.441 177.143 167.853 177.789C169.266 178.434 170.557 179.262 171.727 180.271C172.938 181.239 173.906 182.49 174.633 184.023C175.359 185.516 175.722 187.373 175.722 189.592C175.722 193.668 174.27 196.876 171.364 199.216C168.459 201.517 164.444 202.667 159.319 202.667Z" fill="#333333"/>
<path d="M119.039 202.667C115.529 202.667 112.502 202.102 109.96 200.972C107.458 199.802 105.158 198.046 103.06 195.706L109.234 189.592C110.606 191.166 112.119 192.397 113.773 193.284C115.468 194.132 117.425 194.556 119.645 194.556C121.662 194.556 123.216 194.192 124.306 193.466C125.435 192.74 126 191.731 126 190.44C126 189.269 125.637 188.321 124.911 187.595C124.185 186.868 123.216 186.243 122.005 185.718C120.835 185.194 119.524 184.689 118.071 184.205C116.659 183.721 115.246 183.176 113.834 182.571C112.422 181.925 111.11 181.138 109.899 180.21C108.729 179.242 107.781 178.051 107.055 176.639C106.328 175.186 105.965 173.37 105.965 171.191C105.965 168.568 106.59 166.308 107.841 164.412C109.133 162.515 110.908 161.083 113.168 160.114C115.428 159.105 118.031 158.601 120.976 158.601C123.963 158.601 126.686 159.125 129.148 160.175C131.65 161.224 133.708 162.656 135.322 164.472L129.148 170.586C127.857 169.254 126.545 168.265 125.214 167.62C123.922 166.974 122.449 166.651 120.795 166.651C119.14 166.651 117.829 166.974 116.86 167.62C115.892 168.225 115.408 169.113 115.408 170.283C115.408 171.373 115.771 172.26 116.497 172.946C117.224 173.592 118.172 174.157 119.342 174.641C120.553 175.125 121.864 175.61 123.277 176.094C124.729 176.578 126.162 177.143 127.574 177.789C128.987 178.434 130.278 179.262 131.448 180.271C132.659 181.239 133.627 182.49 134.354 184.023C135.08 185.516 135.443 187.373 135.443 189.592C135.443 193.668 133.99 196.876 131.085 199.216C128.179 201.517 124.164 202.667 119.039 202.667Z" fill="#333333"/>
<path d="M83.248 202.001V159.267H92.7512V202.001H83.248Z" fill="#333333"/>
</svg>
